<?xml version="1.0" encoding="UTF-8" standalone="no"?>
<svg width="277px" height="292px" viewBox="0 0 277 292" version="1.1" xmlns="http://www.w3.org/2000/svg" xmlns:xlink="http://www.w3.org/1999/xlink" xmlns:sketch="http://www.bohemiancoding.com/sketch/ns">
    <!-- Generator: Sketch 3.0.1 (7597) - http://www.bohemiancoding.com/sketch -->
    <title>Logo</title>
    <description>Created with Sketch.</description>
    <defs></defs>
    <g id="Page-1" stroke="none" stroke-width="1" fill="none" fill-rule="evenodd" sketch:type="MSPage">
        <g id="Logo" sketch:type="MSLayerGroup" transform="translate(9.000000, 9.000000)">
            <g id="Path" sketch:type="MSShapeGroup">
                <path d="M132.073174,223.19415 C130.879261,223.676212 129.697765,223.704481 128.528649,223.278958 C127.359534,222.853435 126.517591,222.088694 126.002796,220.984713 L120.597479,209.392973 L135.501145,202.44328 C136.605126,201.928485 136.883348,201.164075 136.335821,200.150026 L134.926342,196.887199 C134.411547,195.783218 133.602172,195.488629 132.498191,196.003424 L117.594525,202.953118 L106.869689,179.953633 L121.773355,173.00394 C122.877336,172.489145 123.155559,171.724735 122.608032,170.710686 L121.198552,167.447859 C120.683758,166.343878 119.874382,166.049289 118.770401,166.564084 L103.866735,173.513778 L93.1418998,150.514293 L108.045566,143.5646 C109.149546,143.049805 109.427769,142.285395 108.880242,141.271346 L107.470763,138.008519 C106.955968,136.904538 106.146592,136.609949 105.042612,137.124744 L90.1389458,144.074437 L57.2780491,73.6040172 C56.7632545,72.5000365 94.4824089,54.9113059 94.9972036,56.0152866 L163.721951,203.395983 C164.236746,204.499964 164.281381,205.636495 163.855857,206.80561 C163.430334,207.974726 162.649227,208.861634 161.512514,209.46636 L132.073174,223.19415 L132.073174,223.19415 Z" stroke="#FFFFFF" stroke-width="5" fill="#CCCCCC"></path>
                <path d="M53.3891183,50.0070468 L106.903913,80.5058014 L103.705087,86.7238839 C102.795314,88.5163292 102.603882,90.410534 103.130786,92.4065552 C103.657689,94.4025763 104.741916,95.8904677 106.383499,96.870274 C114.356654,102.189694 122.43736,107.152923 130.625858,111.760109 C138.814357,116.367296 146.634005,120.450727 154.085039,124.010526 C161.536072,127.570325 168.811216,130.791612 175.91069,133.674485 C183.010163,136.557358 189.606397,138.953051 195.69959,140.861635 C201.792783,142.770219 207.485349,144.252874 212.777459,145.309646 C218.069569,146.366417 222.662981,146.959482 226.557833,147.088858 C230.452685,147.218234 233.675741,146.876607 236.227097,146.063968 C238.778453,145.251329 240.489429,143.983838 241.360075,142.261458 C242.230721,140.539077 242.395272,138.652182 241.853733,136.600716 C241.312193,134.54925 240.27441,133.019017 238.740353,132.009971 L167.084479,85.1772939 L76.3488233,25.6580845 C71.580581,22.4384065 48.2785885,47.2369972 53.3891183,50.0070468 L53.3891183,50.0070468 L53.3891183,50.0070468 Z" stroke="#FFFFFF" stroke-width="5" fill="#AAAAAA"></path>
                <path d="M211.95978,11.1150153 C205.57805,12.6506293 199.469259,14.6256438 193.633224,17.040118 C187.797189,19.4545923 181.500855,21.5869739 174.744034,23.4373268 C167.987213,25.2876797 162.549458,25.967608 158.430606,25.4771321 C152.809317,24.7196328 57.2113812,15.5399338 47.2132886,13.2989633 C37.2151961,11.0579928 35.9273359,39.7647254 46.3488057,40.3773424 C56.7702755,40.9899594 152.370776,49.7537558 157.573817,51.3077909 C162.776858,52.861826 167.655091,54.9429335 172.208664,57.5511758 C176.762237,60.1594181 181.109445,62.9407251 185.250417,65.8951802 C189.39139,68.8496353 192.789564,70.9950622 195.445042,72.3315252 C196.685433,73.2003607 200.729206,73.7537761 207.576483,73.9917879 C214.42376,74.2297998 220.907661,74.2633991 227.02838,74.0925868 L236.321941,73.7419484 L243.523657,67.698991 L218.267937,52.2260244 C218.079873,52.001899 217.841715,51.7561601 217.553454,51.4888003 C217.265194,51.2214404 216.851305,50.6139253 216.311775,49.6662369 C215.772246,48.7185484 215.442363,47.7541014 215.322117,46.7728668 C215.201871,45.7916322 215.466219,44.583182 216.115168,43.14748 C216.764118,41.711778 217.876268,40.3329959 219.451651,39.0110923 C221.027035,37.6891888 222.518389,36.7242371 223.925758,36.1162083 C225.333127,35.5081795 226.349717,35.1962171 226.97556,35.180312 L227.801792,35.2508756 L251.909088,48.4411016 L255.509946,45.4196229 C251.566729,35.9973972 246.749062,27.8183447 241.0568,20.8822202 C236.367543,15.1414307 231.756481,11.626715 227.223475,10.3379675 C223.429357,9.32038802 218.34151,9.57940136 211.95978,11.1150153 L211.95978,11.1150153 Z" stroke="#FFFFFF" stroke-width="5" fill="#888888"></path>
                <path d="M87.8880967,227.959041 L87.3907717,44.2671809 C87.3452367,32.0197662 83.0482919,21.6224959 74.4998085,13.0750582 C65.9513251,4.52762047 55.648476,0.231557038 43.5909522,0.186739013 C33.5013019,0.149235608 24.6624836,3.09776556 17.0743166,9.03240305 C5.53507325,17.7922199 -0.163830213,29.2526573 -0.111180377,43.4137306 L0.386144636,227.105591 C0.431679629,239.353005 4.72862438,249.750276 13.2771078,258.297713 C21.8255912,266.845151 32.1284403,271.141214 44.1859641,271.186032 C54.2756144,271.223536 63.1144327,268.275006 70.7025997,262.340368 C82.2418431,253.580552 87.9407465,242.120114 87.8880967,227.959041 Z" stroke="#FFFFFF" stroke-width="5" fill="#FFFFFF"></path>
                <path d="M87.8880967,227.959041 L87.3907717,44.2671809 C87.3452367,32.0197662 83.0482919,21.6224959 74.4998085,13.0750582 C65.9513251,4.52762047 55.648476,0.231557038 43.5909522,0.186739013 C33.501302,0.149235608 24.6624836,3.09776556 17.0743166,9.03240305 C5.53507326,17.7922199 -0.163830204,29.2526573 -0.111180369,43.4137306 L0.386144645,227.105591 C0.431679638,239.353005 4.72862439,249.750276 13.2771078,258.297713 C21.8255912,266.845151 32.1284403,271.141214 44.1859641,271.186032 C54.2756144,271.223536 63.1144327,268.275006 70.7025997,262.340368 C82.2418431,253.580552 87.9407465,242.120114 87.8880967,227.959041 Z M70.0914147,110.133853 L44.0826872,118.685208 L18.0739598,110.133853 L13.7391719,50.2743731 L74.4262026,50.2743731 L70.0914147,110.133853 Z M22.5663764,58.1015776 L23.373238,66.7448819 L52.6892116,66.7448819 L52.6892116,75.3881863 L24.1128612,75.3881863 L24.9197229,84.0314907 L52.6892116,84.0314907 L52.6892116,96.9964472 L44.0826872,99.1572733 L35.4761629,96.9964472 L35.4761629,88.3531429 L25.3231537,88.3531429 L26.8696385,105.639752 L44.0826872,109.961404 L61.2957359,105.639752 L65.5989981,58.1015776 L22.5663764,58.1015776 Z" fill="#CC3300"></path>
            </g>
        </g>
    </g>
</svg>